<svg width="18" height="18" viewBox="0 0 18 18" fill="none" xmlns="http://www.w3.org/2000/svg">
<path d="M1.875 9H16.125" stroke="#1A1A1A" stroke-width="2" stroke-linecap="round" stroke-linejoin="round"/>
<path d="M10.5 1.5H7.5C7.08578 1.5 6.75 1.83579 6.75 2.25V5.25C6.75 5.66422 7.08578 6 7.5 6H10.5C10.9142 6 11.25 5.66422 11.25 5.25V2.25C11.25 1.83579 10.9142 1.5 10.5 1.5Z" stroke="#1A1A1A" stroke-width="2" stroke-linejoin="round"/>
<path d="M6 12H3C2.58579 12 2.25 12.3358 2.25 12.75V15.75C2.25 16.1642 2.58579 16.5 3 16.5H6C6.41422 16.5 6.75 16.1642 6.75 15.75V12.75C6.75 12.3358 6.41422 12 6 12Z" stroke="#1A1A1A" stroke-width="2" stroke-linejoin="round"/>
<path d="M15 12H12C11.5858 12 11.25 12.3358 11.25 12.75V15.75C11.25 16.1642 11.5858 16.5 12 16.5H15C15.4142 16.5 15.75 16.1642 15.75 15.75V12.75C15.75 12.3358 15.4142 12 15 12Z" stroke="#1A1A1A" stroke-width="2" stroke-linejoin="round"/>
<path d="M9 9V6" stroke="#1A1A1A" stroke-width="2" stroke-linecap="round" stroke-linejoin="round"/>
<path d="M13.5 12V9" stroke="#1A1A1A" stroke-width="2" stroke-linecap="round" stroke-linejoin="round"/>
<path d="M4.5 12V9" stroke="#1A1A1A" stroke-width="2" stroke-linecap="round" stroke-linejoin="round"/>
</svg>
