<svg width="18" height="18" viewBox="0 0 18 18" fill="none" xmlns="http://www.w3.org/2000/svg">
<path d="M7.5 3.75H2.25C1.83579 3.75 1.5 4.08578 1.5 4.5V14.25C1.5 14.6642 1.83579 15 2.25 15H15.75C16.1642 15 16.5 14.6642 16.5 14.25V13.3125" stroke="#1A1A1A" stroke-width="2" stroke-linecap="round" stroke-linejoin="round"/>
<path d="M3.75 8.625H6.75" stroke="#1A1A1A" stroke-width="2" stroke-linecap="round"/>
<path d="M3.75 11.625H12.75" stroke="#1A1A1A" stroke-width="2" stroke-linecap="round"/>
<path d="M12.75 8.25C13.9926 8.25 15 7.24264 15 6C15 4.75736 13.9926 3.75 12.75 3.75C11.5074 3.75 10.5 4.75736 10.5 6C10.5 7.24264 11.5074 8.25 12.75 8.25Z" stroke="#1A1A1A" stroke-width="2" stroke-linecap="round" stroke-linejoin="round"/>
<path d="M16.5 10.657C15.7675 9.22586 14.25 8.25 12.75 8.25C11.25 8.25 10.5027 8.67484 9.73132 9.375" stroke="#1A1A1A" stroke-width="2" stroke-linecap="round" stroke-linejoin="round"/>
</svg>
