<svg width="24" height="24" viewBox="0 0 24 24" fill="none" xmlns="http://www.w3.org/2000/svg">
<path d="M4.63923 16.25C6.98644 20.3155 12.185 21.7084 16.2504 19.3612C18.1241 18.2794 19.4301 16.5921 20.0639 14.6891C20.1539 14.4191 19.9783 14.1389 19.6991 14.0835L17.1441 13.577C16.6483 13.4787 16.1673 13.7734 15.9191 14.2137C15.5368 14.8919 14.9735 15.4796 14.2504 15.8971C12.0981 17.1397 9.34597 16.4023 8.10333 14.25C6.86069 12.0977 7.59813 9.3455 9.75044 8.10286C9.79548 8.07685 9.84079 8.05171 9.88634 8.02744C10.32 7.79633 10.6211 7.34156 10.5515 6.85514L10.1757 4.22559C10.1362 3.94931 9.86848 3.76469 9.60081 3.84368C8.96801 4.03042 8.34703 4.29432 7.75044 4.63876C3.68495 6.98597 2.29202 12.1845 4.63923 16.25Z" stroke="#204BDF" stroke-width="2" stroke-linecap="round"/>
<path d="M16.2022 10.3872C16.1187 10.1705 16.0173 9.95744 15.8976 9.74997C15.352 8.80502 14.5155 8.1328 13.5665 7.78113C13.0879 7.6038 12.7187 7.16843 12.7433 6.65867L12.8423 4.6048C12.8699 4.03044 13.3775 3.59242 13.9373 3.72357C16.1436 4.24035 18.1393 5.63275 19.3617 7.74997C19.8014 8.51155 20.1098 9.3129 20.294 10.1278C20.4247 10.7058 19.9517 11.2154 19.3592 11.209L17.2478 11.186C16.7701 11.1808 16.3739 10.833 16.2022 10.3872Z" stroke="#204BDF" stroke-width="2" stroke-linecap="round"/>
</svg>
