<svg version="1.1" xmlns="http://www.w3.org/2000/svg" xmlns:xlink="http://www.w3.org/1999/xlink" width="1635.3671875" height="836"><defs/><g><g><rect fill="#C0C0C0" stroke="none" x="615" y="919" width="191.8671875" height="206" transform="matrix(1 0 0 1 -222 -710)" fill-opacity="0.2"/></g><g><rect fill="#ffffff" stroke="none" x="608" y="912" width="191.8671875" height="206" transform="matrix(1 0 0 1 -222 -710)"/></g><g><path fill="none" stroke="#000000" paint-order="fill stroke markers" d=" M 386 202 L 577.8671875 202 L 577.8671875 408 L 386 408 L 386 202 Z Z" stroke-miterlimit="10" stroke-dasharray=""/></g><g><path fill="none" stroke="#000000" paint-order="fill stroke markers" d=" M 386 230 L 578.8671875 230" stroke-miterlimit="10" stroke-dasharray=""/></g><g><path fill="none" stroke="#000000" paint-order="fill stroke markers" d=" M 386 364 L 578.8671875 364" stroke-miterlimit="10" stroke-dasharray=""/></g><g><g><path fill="none" stroke="none"/><text fill="#000000" stroke="none" font-family="Roboto" font-size="16px" font-style="normal" font-weight="bold" text-decoration="undefined" x="704.43359375" y="927" text-anchor="middle" dominant-baseline="central" transform="matrix(1 0 0 1 -222 -710)">LoginController</text></g></g><g><g><path fill="none" stroke="none"/><text fill="#000000" stroke="none" font-family="Roboto" font-size="16px" font-style="normal" font-weight="normal" text-decoration="undefined" x="613" y="953" text-anchor="start" dominant-baseline="central" transform="matrix(1 0 0 1 -222 -710)">-usernameField</text></g></g><g><g><path fill="none" stroke="none"/><text fill="#000000" stroke="none" font-family="Roboto" font-size="16px" font-style="normal" font-weight="normal" text-decoration="undefined" x="613" y="971" text-anchor="start" dominant-baseline="central" transform="matrix(1 0 0 1 -222 -710)">-passwordField</text></g></g><g><g><path fill="none" stroke="none"/><text fill="#000000" stroke="none" font-family="Roboto" font-size="16px" font-style="normal" font-weight="normal" text-decoration="undefined" x="613" y="989" text-anchor="start" dominant-baseline="central" transform="matrix(1 0 0 1 -222 -710)">-rememberMe</text></g></g><g><g><path fill="none" stroke="none"/><text fill="#000000" stroke="none" font-family="Roboto" font-size="16px" font-style="normal" font-weight="normal" text-decoration="undefined" x="613" y="1007" text-anchor="start" dominant-baseline="central" transform="matrix(1 0 0 1 -222 -710)">-btn</text></g></g><g><g><path fill="none" stroke="none"/><text fill="#000000" stroke="none" font-family="Roboto" font-size="16px" font-style="normal" font-weight="normal" text-decoration="undefined" x="613" y="1025" text-anchor="start" dominant-baseline="central" transform="matrix(1 0 0 1 -222 -710)">-spinner</text></g></g><g><g><path fill="none" stroke="none"/><text fill="#000000" stroke="none" font-family="Roboto" font-size="16px" font-style="normal" font-weight="normal" text-decoration="undefined" x="613" y="1043" text-anchor="start" dominant-baseline="central" transform="matrix(1 0 0 1 -222 -710)">-loginModel</text></g></g><g><g><path fill="none" stroke="none"/><text fill="#000000" stroke="none" font-family="Roboto" font-size="16px" font-style="normal" font-weight="normal" text-decoration="undefined" x="613" y="1061" text-anchor="start" dominant-baseline="central" transform="matrix(1 0 0 1 -222 -710)">-userModel</text></g></g><g><g><path fill="none" stroke="none"/><text fill="#000000" stroke="none" font-family="Roboto" font-size="16px" font-style="normal" font-weight="normal" text-decoration="undefined" x="613" y="1087" text-anchor="start" dominant-baseline="central" transform="matrix(1 0 0 1 -222 -710)">+viewDIdLoad()</text></g></g><g><g><path fill="none" stroke="none"/><text fill="#000000" stroke="none" font-family="Roboto" font-size="16px" font-style="normal" font-weight="normal" text-decoration="undefined" x="613" y="1105" text-anchor="start" dominant-baseline="central" transform="matrix(1 0 0 1 -222 -710)">-login()</text></g></g><g><rect fill="#C0C0C0" stroke="none" x="511" y="1319" width="222.09375" height="224" transform="matrix(1 0 0 1 -222 -710)" fill-opacity="0.2"/></g><g><rect fill="#ffffff" stroke="none" x="504" y="1312" width="222.09375" height="224" transform="matrix(1 0 0 1 -222 -710)"/></g><g><path fill="none" stroke="#000000" paint-order="fill stroke markers" d=" M 282 602 L 504.09375 602 L 504.09375 826 L 282 826 L 282 602 Z Z" stroke-miterlimit="10" stroke-dasharray=""/></g><g><path fill="none" stroke="#000000" paint-order="fill stroke markers" d=" M 282 630 L 505.09375 630" stroke-miterlimit="10" stroke-dasharray=""/></g><g><path fill="none" stroke="#000000" paint-order="fill stroke markers" d=" M 282 692 L 505.09375 692" stroke-miterlimit="10" stroke-dasharray=""/></g><g><g><path fill="none" stroke="none"/><text fill="#000000" stroke="none" font-family="Roboto" font-size="16px" font-style="normal" font-weight="bold" text-decoration="undefined" x="615.546875" y="1327" text-anchor="middle" dominant-baseline="central" transform="matrix(1 0 0 1 -222 -710)">LoginModel</text></g></g><g><g><path fill="none" stroke="none"/><text fill="#000000" stroke="none" font-family="Roboto" font-size="16px" font-style="normal" font-weight="normal" text-decoration="undefined" x="509" y="1353" text-anchor="start" dominant-baseline="central" transform="matrix(1 0 0 1 -222 -710)">+isAuthorized {readOnly}</text><path fill="none" stroke="#000000" paint-order="fill stroke markers" d=" M 287 651 L 462.6796875 651" stroke-miterlimit="10" stroke-dasharray=""/></g></g><g><g><path fill="none" stroke="none"/><text fill="#000000" stroke="none" font-family="Roboto" font-size="16px" font-style="normal" font-weight="normal" text-decoration="undefined" x="509" y="1371" text-anchor="start" dominant-baseline="central" transform="matrix(1 0 0 1 -222 -710)">-username</text></g></g><g><g><path fill="none" stroke="none"/><text fill="#000000" stroke="none" font-family="Roboto" font-size="16px" font-style="normal" font-weight="normal" text-decoration="undefined" x="509" y="1389" text-anchor="start" dominant-baseline="central" transform="matrix(1 0 0 1 -222 -710)">-password</text></g></g><g><g><path fill="none" stroke="none"/><text fill="#000000" stroke="none" font-family="Roboto" font-size="16px" font-style="normal" font-weight="normal" text-decoration="undefined" x="509" y="1415" text-anchor="start" dominant-baseline="central" transform="matrix(1 0 0 1 -222 -710)">+getAccessToken()</text><path fill="none" stroke="#000000" paint-order="fill stroke markers" d=" M 287 713 L 425.1015625 713" stroke-miterlimit="10" stroke-dasharray=""/></g></g><g><g><path fill="none" stroke="none"/><text fill="#000000" stroke="none" font-family="Roboto" font-size="16px" font-style="normal" font-weight="normal" text-decoration="undefined" x="509" y="1433" text-anchor="start" dominant-baseline="central" transform="matrix(1 0 0 1 -222 -710)">+setAccessToken(authToken)</text><path fill="none" stroke="#000000" paint-order="fill stroke markers" d=" M 287 731 L 499.09375 731" stroke-miterlimit="10" stroke-dasharray=""/></g></g><g><g><path fill="none" stroke="none"/><text fill="#000000" stroke="none" font-family="Roboto" font-size="16px" font-style="normal" font-weight="normal" text-decoration="undefined" x="509" y="1451" text-anchor="start" dominant-baseline="central" transform="matrix(1 0 0 1 -222 -710)">+set(username)</text></g></g><g><g><path fill="none" stroke="none"/><text fill="#000000" stroke="none" font-family="Roboto" font-size="16px" font-style="normal" font-weight="normal" text-decoration="undefined" x="509" y="1469" text-anchor="start" dominant-baseline="central" transform="matrix(1 0 0 1 -222 -710)">+set(password)</text></g></g><g><g><path fill="none" stroke="none"/><text fill="#000000" stroke="none" font-family="Roboto" font-size="16px" font-style="normal" font-weight="normal" text-decoration="undefined" x="509" y="1487" text-anchor="start" dominant-baseline="central" transform="matrix(1 0 0 1 -222 -710)">+validate()</text></g></g><g><g><path fill="none" stroke="none"/><text fill="#000000" stroke="none" font-family="Roboto" font-size="16px" font-style="normal" font-weight="normal" text-decoration="undefined" x="509" y="1505" text-anchor="start" dominant-baseline="central" transform="matrix(1 0 0 1 -222 -710)">+login()</text></g></g><g><g><path fill="none" stroke="none"/><text fill="#000000" stroke="none" font-family="Roboto" font-size="16px" font-style="normal" font-weight="normal" text-decoration="undefined" x="509" y="1523" text-anchor="start" dominant-baseline="central" transform="matrix(1 0 0 1 -222 -710)">+logout()</text><path fill="none" stroke="#000000" paint-order="fill stroke markers" d=" M 287 821 L 352.2578125 821" stroke-miterlimit="10" stroke-dasharray=""/></g></g><g><rect fill="#C0C0C0" stroke="none" x="935" y="1319" width="115.53125" height="118" transform="matrix(1 0 0 1 -222 -710)" fill-opacity="0.2"/></g><g><rect fill="#ffffff" stroke="none" x="928" y="1312" width="115.53125" height="118" transform="matrix(1 0 0 1 -222 -710)"/></g><g><path fill="none" stroke="#000000" paint-order="fill stroke markers" d=" M 706 602 L 821.53125 602 L 821.53125 720 L 706 720 L 706 602 Z Z" stroke-miterlimit="10" stroke-dasharray=""/></g><g><path fill="none" stroke="#000000" paint-order="fill stroke markers" d=" M 706 630 L 822.53125 630" stroke-miterlimit="10" stroke-dasharray=""/></g><g><path fill="none" stroke="#000000" paint-order="fill stroke markers" d=" M 706 640 L 822.53125 640" stroke-miterlimit="10" stroke-dasharray=""/></g><g><g><path fill="none" stroke="none"/><text fill="#000000" stroke="none" font-family="Roboto" font-size="16px" font-style="normal" font-weight="bold" text-decoration="undefined" x="986.265625" y="1327" text-anchor="middle" dominant-baseline="central" transform="matrix(1 0 0 1 -222 -710)">UserModel</text></g></g><g><g><path fill="none" stroke="none"/><text fill="#000000" stroke="none" font-family="Roboto" font-size="16px" font-style="normal" font-weight="normal" text-decoration="undefined" x="933" y="1363" text-anchor="start" dominant-baseline="central" transform="matrix(1 0 0 1 -222 -710)">+setUser(user)</text><path fill="none" stroke="#000000" paint-order="fill stroke markers" d=" M 711 661 L 816.53125 661" stroke-miterlimit="10" stroke-dasharray=""/></g></g><g><g><path fill="none" stroke="none"/><text fill="#000000" stroke="none" font-family="Roboto" font-size="16px" font-style="normal" font-weight="normal" text-decoration="undefined" x="933" y="1381" text-anchor="start" dominant-baseline="central" transform="matrix(1 0 0 1 -222 -710)">+getUser()</text><path fill="none" stroke="#000000" paint-order="fill stroke markers" d=" M 711 679 L 786.296875 679" stroke-miterlimit="10" stroke-dasharray=""/></g></g><g><g><path fill="none" stroke="none"/><text fill="#000000" stroke="none" font-family="Roboto" font-size="16px" font-style="normal" font-weight="normal" text-decoration="undefined" x="933" y="1399" text-anchor="start" dominant-baseline="central" transform="matrix(1 0 0 1 -222 -710)">+fetchUser()</text></g></g><g><g><path fill="none" stroke="none"/><text fill="#000000" stroke="none" font-family="Roboto" font-size="16px" font-style="normal" font-weight="normal" text-decoration="undefined" x="933" y="1417" text-anchor="start" dominant-baseline="central" transform="matrix(1 0 0 1 -222 -710)">+clear()</text><path fill="none" stroke="#000000" paint-order="fill stroke markers" d=" M 711 715 L 765.953125 715" stroke-miterlimit="10" stroke-dasharray=""/></g></g><g><rect fill="#C0C0C0" stroke="none" x="1295" y="1295" width="215.171875" height="242" transform="matrix(1 0 0 1 -222 -710)" fill-opacity="0.2"/></g><g><rect fill="#ffffff" stroke="none" x="1288" y="1288" width="215.171875" height="242" transform="matrix(1 0 0 1 -222 -710)"/></g><g><path fill="none" stroke="#000000" paint-order="fill stroke markers" d=" M 1066 578 L 1281.171875 578 L 1281.171875 820 L 1066 820 L 1066 578 Z Z" stroke-miterlimit="10" stroke-dasharray=""/></g><g><path fill="none" stroke="#000000" paint-order="fill stroke markers" d=" M 1066 606 L 1282.171875 606" stroke-miterlimit="10" stroke-dasharray=""/></g><g><path fill="none" stroke="#000000" paint-order="fill stroke markers" d=" M 1066 794 L 1282.171875 794" stroke-miterlimit="10" stroke-dasharray=""/></g><g><g><path fill="none" stroke="none"/><text fill="#000000" stroke="none" font-family="Roboto" font-size="16px" font-style="normal" font-weight="bold" text-decoration="undefined" x="1396.0859375" y="1303" text-anchor="middle" dominant-baseline="central" transform="matrix(1 0 0 1 -222 -710)">TextField</text></g></g><g><g><path fill="none" stroke="none"/><text fill="#000000" stroke="none" font-family="Roboto" font-size="16px" font-style="normal" font-weight="normal" text-decoration="undefined" x="1293" y="1329" text-anchor="start" dominant-baseline="central" transform="matrix(1 0 0 1 -222 -710)">+title</text></g></g><g><g><path fill="none" stroke="none"/><text fill="#000000" stroke="none" font-family="Roboto" font-size="16px" font-style="normal" font-weight="normal" text-decoration="undefined" x="1293" y="1347" text-anchor="start" dominant-baseline="central" transform="matrix(1 0 0 1 -222 -710)">+leftIcon</text></g></g><g><g><path fill="none" stroke="none"/><text fill="#000000" stroke="none" font-family="Roboto" font-size="16px" font-style="normal" font-weight="normal" text-decoration="undefined" x="1293" y="1365" text-anchor="start" dominant-baseline="central" transform="matrix(1 0 0 1 -222 -710)">+leftIconInteractionEnabled</text></g></g><g><g><path fill="none" stroke="none"/><text fill="#000000" stroke="none" font-family="Roboto" font-size="16px" font-style="normal" font-weight="normal" text-decoration="undefined" x="1293" y="1383" text-anchor="start" dominant-baseline="central" transform="matrix(1 0 0 1 -222 -710)">+text</text></g></g><g><g><path fill="none" stroke="none"/><text fill="#000000" stroke="none" font-family="Roboto" font-size="16px" font-style="normal" font-weight="normal" text-decoration="undefined" x="1293" y="1401" text-anchor="start" dominant-baseline="central" transform="matrix(1 0 0 1 -222 -710)">+placeholder</text></g></g><g><g><path fill="none" stroke="none"/><text fill="#000000" stroke="none" font-family="Roboto" font-size="16px" font-style="normal" font-weight="normal" text-decoration="undefined" x="1293" y="1419" text-anchor="start" dominant-baseline="central" transform="matrix(1 0 0 1 -222 -710)">+secureTextEntry</text></g></g><g><g><path fill="none" stroke="none"/><text fill="#000000" stroke="none" font-family="Roboto" font-size="16px" font-style="normal" font-weight="normal" text-decoration="undefined" x="1293" y="1437" text-anchor="start" dominant-baseline="central" transform="matrix(1 0 0 1 -222 -710)">+rightIcon</text></g></g><g><g><path fill="none" stroke="none"/><text fill="#000000" stroke="none" font-family="Roboto" font-size="16px" font-style="normal" font-weight="normal" text-decoration="undefined" x="1293" y="1455" text-anchor="start" dominant-baseline="central" transform="matrix(1 0 0 1 -222 -710)">+rightIconInteractionEnabled</text></g></g><g><g><path fill="none" stroke="none"/><text fill="#000000" stroke="none" font-family="Roboto" font-size="16px" font-style="normal" font-weight="normal" text-decoration="undefined" x="1293" y="1473" text-anchor="start" dominant-baseline="central" transform="matrix(1 0 0 1 -222 -710)">+borderHidden</text></g></g><g><g><path fill="none" stroke="none"/><text fill="#000000" stroke="none" font-family="Roboto" font-size="16px" font-style="normal" font-weight="normal" text-decoration="undefined" x="1293" y="1491" text-anchor="start" dominant-baseline="central" transform="matrix(1 0 0 1 -222 -710)">+isReadonly</text></g></g><g><g><path fill="none" stroke="none"/><text fill="#000000" stroke="none" font-family="Roboto" font-size="16px" font-style="normal" font-weight="normal" text-decoration="undefined" x="1293" y="1517" text-anchor="start" dominant-baseline="central" transform="matrix(1 0 0 1 -222 -710)">+didTapEyeIcon(btn)</text></g></g><g><rect fill="#C0C0C0" stroke="none" x="1615" y="1303" width="108.40625" height="98" transform="matrix(1 0 0 1 -222 -710)" fill-opacity="0.2"/></g><g><rect fill="#ffffff" stroke="none" x="1608" y="1296" width="108.40625" height="98" transform="matrix(1 0 0 1 -222 -710)"/></g><g><path fill="none" stroke="#000000" paint-order="fill stroke markers" d=" M 1386 586 L 1494.40625 586 L 1494.40625 684 L 1386 684 L 1386 586 Z Z" stroke-miterlimit="10" stroke-dasharray=""/></g><g><path fill="none" stroke="#000000" paint-order="fill stroke markers" d=" M 1386 614 L 1495.40625 614" stroke-miterlimit="10" stroke-dasharray=""/></g><g><path fill="none" stroke="#000000" paint-order="fill stroke markers" d=" M 1386 658 L 1495.40625 658" stroke-miterlimit="10" stroke-dasharray=""/></g><g><g><path fill="none" stroke="none"/><text fill="#000000" stroke="none" font-family="Roboto" font-size="16px" font-style="normal" font-weight="bold" text-decoration="undefined" x="1662.703125" y="1311" text-anchor="middle" dominant-baseline="central" transform="matrix(1 0 0 1 -222 -710)">CheckBox</text></g></g><g><g><path fill="none" stroke="none"/><text fill="#000000" stroke="none" font-family="Roboto" font-size="16px" font-style="normal" font-weight="normal" text-decoration="undefined" x="1613" y="1337" text-anchor="start" dominant-baseline="central" transform="matrix(1 0 0 1 -222 -710)">+isChecked</text></g></g><g><g><path fill="none" stroke="none"/><text fill="#000000" stroke="none" font-family="Roboto" font-size="16px" font-style="normal" font-weight="normal" text-decoration="undefined" x="1613" y="1355" text-anchor="start" dominant-baseline="central" transform="matrix(1 0 0 1 -222 -710)">+text</text></g></g><g><g><path fill="none" stroke="none"/><text fill="#000000" stroke="none" font-family="Roboto" font-size="16px" font-style="normal" font-weight="normal" text-decoration="undefined" x="1613" y="1381" text-anchor="start" dominant-baseline="central" transform="matrix(1 0 0 1 -222 -710)">-didTap()</text></g></g><g><rect fill="#C0C0C0" stroke="none" x="239" y="919" width="130.296875" height="48" transform="matrix(1 0 0 1 -222 -710)" fill-opacity="0.2"/></g><g><rect fill="#ffffff" stroke="none" x="232" y="912" width="130.296875" height="48" transform="matrix(1 0 0 1 -222 -710)"/></g><g><path fill="none" stroke="#000000" paint-order="fill stroke markers" d=" M 10 202 L 140.296875 202 L 140.296875 250 L 10 250 L 10 202 Z Z" stroke-miterlimit="10" stroke-dasharray=""/></g><g><path fill="none" stroke="#000000" paint-order="fill stroke markers" d=" M 10 230 L 141.296875 230" stroke-miterlimit="10" stroke-dasharray=""/></g><g><path fill="none" stroke="#000000" paint-order="fill stroke markers" d=" M 10 240 L 141.296875 240" stroke-miterlimit="10" stroke-dasharray=""/></g><g><g><path fill="none" stroke="none"/><text fill="#000000" stroke="none" font-family="Roboto" font-size="16px" font-style="normal" font-weight="bold" text-decoration="undefined" x="297.6484375" y="927" text-anchor="middle" dominant-baseline="central" transform="matrix(1 0 0 1 -222 -710)">SplashController</text></g></g><g><rect fill="#C0C0C0" stroke="none" x="911" y="967" width="194.5703125" height="64" transform="matrix(1 0 0 1 -222 -710)" fill-opacity="0.2"/></g><g><rect fill="#ffffff" stroke="none" x="904" y="960" width="194.5703125" height="64" transform="matrix(1 0 0 1 -222 -710)"/></g><g><path fill="none" stroke="#000000" paint-order="fill stroke markers" d=" M 682 250 L 876.5703125 250 L 876.5703125 314 L 682 314 L 682 250 Z Z" stroke-miterlimit="10" stroke-dasharray=""/></g><g><path fill="none" stroke="#000000" paint-order="fill stroke markers" d=" M 682 278 L 877.5703125 278" stroke-miterlimit="10" stroke-dasharray=""/></g><g><path fill="none" stroke="#000000" paint-order="fill stroke markers" d=" M 682 304 L 877.5703125 304" stroke-miterlimit="10" stroke-dasharray=""/></g><g><g><path fill="none" stroke="none"/><text fill="#000000" stroke="none" font-family="Roboto" font-size="16px" font-style="normal" font-weight="bold" text-decoration="undefined" x="1001.78515625" y="975" text-anchor="middle" dominant-baseline="central" transform="matrix(1 0 0 1 -222 -710)">BaseNavigationController</text></g></g><g><g><path fill="none" stroke="none"/><text fill="#000000" stroke="none" font-family="Roboto" font-size="16px" font-style="normal" font-weight="normal" text-decoration="undefined" x="909" y="1001" text-anchor="start" dominant-baseline="central" transform="matrix(1 0 0 1 -222 -710)">+childViewControllers</text></g></g><g><rect fill="#C0C0C0" stroke="none" x="1215" y="967" width="167.9140625" height="64" transform="matrix(1 0 0 1 -222 -710)" fill-opacity="0.2"/></g><g><rect fill="#ffffff" stroke="none" x="1208" y="960" width="167.9140625" height="64" transform="matrix(1 0 0 1 -222 -710)"/></g><g><path fill="none" stroke="#000000" paint-order="fill stroke markers" d=" M 986 250 L 1153.9140625 250 L 1153.9140625 314 L 986 314 L 986 250 Z Z" stroke-miterlimit="10" stroke-dasharray=""/></g><g><path fill="none" stroke="#000000" paint-order="fill stroke markers" d=" M 986 278 L 1154.9140625 278" stroke-miterlimit="10" stroke-dasharray=""/></g><g><path fill="none" stroke="#000000" paint-order="fill stroke markers" d=" M 986 304 L 1154.9140625 304" stroke-miterlimit="10" stroke-dasharray=""/></g><g><g><path fill="none" stroke="none"/><text fill="#000000" stroke="none" font-family="Roboto" font-size="16px" font-style="normal" font-weight="bold" text-decoration="undefined" x="1292.45703125" y="975" text-anchor="middle" dominant-baseline="central" transform="matrix(1 0 0 1 -222 -710)">BaseTabBarController</text></g></g><g><g><path fill="none" stroke="none"/><text fill="#000000" stroke="none" font-family="Roboto" font-size="16px" font-style="normal" font-weight="normal" text-decoration="undefined" x="1213" y="1001" text-anchor="start" dominant-baseline="central" transform="matrix(1 0 0 1 -222 -710)">+childViewControllers</text></g></g><g><rect fill="#C0C0C0" stroke="none" x="1527" y="951" width="149.796875" height="98" transform="matrix(1 0 0 1 -222 -710)" fill-opacity="0.2"/></g><g><rect fill="#ffffff" stroke="none" x="1520" y="944" width="149.796875" height="98" transform="matrix(1 0 0 1 -222 -710)"/></g><g><path fill="none" stroke="#000000" paint-order="fill stroke markers" d=" M 1298 234 L 1447.796875 234 L 1447.796875 332 L 1298 332 L 1298 234 Z Z" stroke-miterlimit="10" stroke-dasharray=""/></g><g><path fill="none" stroke="#000000" paint-order="fill stroke markers" d=" M 1298 278 L 1448.796875 278" stroke-miterlimit="10" stroke-dasharray=""/></g><g><path fill="none" stroke="#000000" paint-order="fill stroke markers" d=" M 1298 288 L 1448.796875 288" stroke-miterlimit="10" stroke-dasharray=""/></g><g><g><path fill="none" stroke="none"/><text fill="#000000" stroke="none" font-family="Roboto" font-size="16px" font-style="normal" font-weight="normal" text-decoration="undefined" x="1595.3984375" y="957" text-anchor="middle" dominant-baseline="central" transform="matrix(1 0 0 1 -222 -710)">«class»</text></g></g><g><g><path fill="none" stroke="none"/><text fill="#000000" stroke="none" font-family="Roboto" font-size="16px" font-style="normal" font-weight="bold" text-decoration="undefined" x="1595.3984375" y="975" text-anchor="middle" dominant-baseline="central" transform="matrix(1 0 0 1 -222 -710)">ProfileController</text></g></g><g><g><path fill="none" stroke="none"/><text fill="#000000" stroke="none" font-family="Roboto" font-size="16px" font-style="normal" font-weight="normal" text-decoration="undefined" x="1525" y="1011" text-anchor="start" dominant-baseline="central" transform="matrix(1 0 0 1 -222 -710)">-render(user: User?)</text></g></g><g><g><path fill="none" stroke="none"/><text fill="#000000" stroke="none" font-family="Roboto" font-size="16px" font-style="normal" font-weight="normal" text-decoration="undefined" x="1525" y="1029" text-anchor="start" dominant-baseline="central" transform="matrix(1 0 0 1 -222 -710)">-didLogout()</text></g></g><g><rect fill="#C0C0C0" stroke="none" x="1223" y="743" width="131.7578125" height="64" transform="matrix(1 0 0 1 -222 -710)" fill-opacity="0.2"/></g><g><rect fill="#ffffff" stroke="none" x="1216" y="736" width="131.7578125" height="64" transform="matrix(1 0 0 1 -222 -710)"/></g><g><path fill="none" stroke="#000000" paint-order="fill stroke markers" d=" M 994 26 L 1125.7578125 26 L 1125.7578125 90 L 994 90 L 994 26 Z Z" stroke-miterlimit="10" stroke-dasharray=""/></g><g><path fill="none" stroke="#000000" paint-order="fill stroke markers" d=" M 994 70 L 1126.7578125 70" stroke-miterlimit="10" stroke-dasharray=""/></g><g><path fill="none" stroke="#000000" paint-order="fill stroke markers" d=" M 994 80 L 1126.7578125 80" stroke-miterlimit="10" stroke-dasharray=""/></g><g><g><path fill="none" stroke="none"/><text fill="#000000" stroke="none" font-family="Roboto" font-size="16px" font-style="normal" font-weight="normal" text-decoration="undefined" x="1282.37890625" y="749" text-anchor="middle" dominant-baseline="central" transform="matrix(1 0 0 1 -222 -710)">«class»</text></g></g><g><g><path fill="none" stroke="none"/><text fill="#000000" stroke="none" font-family="Roboto" font-size="16px" font-style="normal" font-weight="bold" text-decoration="undefined" x="1282.37890625" y="767" text-anchor="middle" dominant-baseline="central" transform="matrix(1 0 0 1 -222 -710)">UIViewController</text></g></g><g><rect fill="#C0C0C0" stroke="none" x="1471" y="727" width="382.3671875" height="116" transform="matrix(1 0 0 1 -222 -710)" fill-opacity="0.2"/></g><g><rect fill="#ffffff" stroke="none" x="1464" y="720" width="382.3671875" height="116" transform="matrix(1 0 0 1 -222 -710)"/></g><g><path fill="none" stroke="#000000" paint-order="fill stroke markers" d=" M 1242 10 L 1624.3671875 10 L 1624.3671875 126 L 1242 126 L 1242 10 Z Z" stroke-miterlimit="10" stroke-dasharray=""/></g><g><path fill="none" stroke="#000000" paint-order="fill stroke markers" d=" M 1242 54 L 1625.3671875 54" stroke-miterlimit="10" stroke-dasharray=""/></g><g><path fill="none" stroke="#000000" paint-order="fill stroke markers" d=" M 1242 64 L 1625.3671875 64" stroke-miterlimit="10" stroke-dasharray=""/></g><g><g><path fill="none" stroke="none"/><text fill="#000000" stroke="none" font-family="Roboto" font-size="16px" font-style="normal" font-weight="normal" text-decoration="undefined" x="1655.68359375" y="733" text-anchor="middle" dominant-baseline="central" transform="matrix(1 0 0 1 -222 -710)">«extension»</text></g></g><g><g><path fill="none" stroke="none"/><text fill="#000000" stroke="none" font-family="Roboto" font-size="16px" font-style="normal" font-weight="bold" text-decoration="undefined" x="1655.68359375" y="751" text-anchor="middle" dominant-baseline="central" transform="matrix(1 0 0 1 -222 -710)">UIViewController</text></g></g><g><g><path fill="none" stroke="none"/><text fill="#000000" stroke="none" font-family="Roboto" font-size="16px" font-style="normal" font-weight="normal" text-decoration="undefined" x="1469" y="787" text-anchor="start" dominant-baseline="central" transform="matrix(1 0 0 1 -222 -710)">+pop()</text></g></g><g><g><path fill="none" stroke="none"/><text fill="#000000" stroke="none" font-family="Roboto" font-size="16px" font-style="normal" font-weight="normal" text-decoration="undefined" x="1469" y="805" text-anchor="start" dominant-baseline="central" transform="matrix(1 0 0 1 -222 -710)">+popNavigation(animated)</text></g></g><g><g><path fill="none" stroke="none"/><text fill="#000000" stroke="none" font-family="Roboto" font-size="16px" font-style="normal" font-weight="normal" text-decoration="undefined" x="1469" y="823" text-anchor="start" dominant-baseline="central" transform="matrix(1 0 0 1 -222 -710)">+presentAlert(title, message, preferredStyle, actions)</text></g></g><g><path fill="none" stroke="#000000" paint-order="fill stroke markers" d=" M 1127 60 L 1241 63" stroke-miterlimit="10" stroke-dasharray=""/></g><g><path fill="#FFFFFF" stroke="none" paint-order="stroke fill markers" d=" M 1220.4602076042302 70.8814293334824 L 1241 63 L 1220.9031613856394 54.04918563993522"/></g><g><path fill="none" stroke="#000000" paint-order="fill stroke markers" d=" M 1220.4602076042302 70.8814293334824 L 1241 63 L 1220.9031613856394 54.04918563993522 L 1220.4602076042302 70.8814293334824" stroke-miterlimit="10" stroke-dasharray=""/></g><g><path fill="none" stroke="#000000" paint-order="fill stroke markers" d=" M 1302 233 L 1105 91" stroke-miterlimit="10" stroke-dasharray=""/></g><g><path fill="#FFFFFF" stroke="none" paint-order="stroke fill markers" d=" M 1126.4113015804558 96.05531053752088 L 1105 91 L 1116.5654321794857 109.71472090365535"/></g><g><path fill="none" stroke="#000000" paint-order="fill stroke markers" d=" M 1126.4113015804558 96.05531053752088 L 1105 91 L 1116.5654321794857 109.71472090365535 L 1126.4113015804558 96.05531053752088" stroke-miterlimit="10" stroke-dasharray=""/></g><g><path fill="none" stroke="#000000" paint-order="fill stroke markers" d=" M 1068 249 L 1060 91" stroke-miterlimit="10" stroke-dasharray=""/></g><g><path fill="#FFFFFF" stroke="none" paint-order="stroke fill markers" d=" M 1069.4360792864597 110.87361083697795 L 1060 91 L 1052.61955066178 111.72508064075919"/></g><g><path fill="none" stroke="#000000" paint-order="fill stroke markers" d=" M 1069.4360792864597 110.87361083697795 L 1060 91 L 1052.61955066178 111.72508064075919 L 1069.4360792864597 110.87361083697795" stroke-miterlimit="10" stroke-dasharray=""/></g><g><path fill="none" stroke="#000000" paint-order="fill stroke markers" d=" M 820 249 L 1018 91" stroke-miterlimit="10" stroke-dasharray=""/></g><g><path fill="#FFFFFF" stroke="none" paint-order="stroke fill markers" d=" M 1007.3641438398645 110.25820769804147 L 1018 91 L 996.8617047286593 97.09692324222749"/></g><g><path fill="none" stroke="#000000" paint-order="fill stroke markers" d=" M 1007.3641438398645 110.25820769804147 L 1018 91 L 996.8617047286593 97.09692324222749 L 1007.3641438398645 110.25820769804147" stroke-miterlimit="10" stroke-dasharray=""/></g><g><path fill="none" stroke="#000000" paint-order="fill stroke markers" d=" M 985 282 L 878 282" stroke-miterlimit="10" stroke-dasharray=""/></g><g><path fill="#FFFFFF" stroke="none" paint-order="stroke fill markers" d=" M 888.1626748576241 277.790482243984 L 878 282 L 888.1626748576241 286.209517756016 L 900 282"/></g><g><path fill="none" stroke="#000000" paint-order="fill stroke markers" d=" M 888.1626748576241 277.790482243984 L 878 282 L 888.1626748576241 286.209517756016 L 900 282 L 888.1626748576241 277.790482243984" stroke-miterlimit="10" stroke-dasharray=""/></g><g><path fill="none" stroke="#000000" paint-order="fill stroke markers" d=" M 1297 283 L 1155 282" stroke-miterlimit="10" stroke-dasharray=""/></g><g><path fill="#FFFFFF" stroke="none" paint-order="stroke fill markers" d=" M 1165.1920666227115 277.8621529803281 L 1155 282 L 1165.132779110347 286.2809797361019 L 1176.9994544936087 282.1549257358705"/></g><g><path fill="none" stroke="#000000" paint-order="fill stroke markers" d=" M 1165.1920666227115 277.8621529803281 L 1155 282 L 1165.132779110347 286.2809797361019 L 1176.9994544936087 282.1549257358705 L 1165.1920666227115 277.8621529803281" stroke-miterlimit="10" stroke-dasharray=""/></g><g><path fill="none" stroke="#000000" paint-order="fill stroke markers" d=" M 417 601 L 459 409" stroke-miterlimit="10" stroke-dasharray=""/></g><g><path fill="#FFFFFF" stroke="none" paint-order="stroke fill markers" d=" M 460.9405460716931 419.8274780509423 L 459 409 L 452.71599013352943 418.028356439469 L 454.2986686662805 430.49180038271766"/></g><g><path fill="none" stroke="#000000" paint-order="fill stroke markers" d=" M 460.9405460716931 419.8274780509423 L 459 409 L 452.71599013352943 418.028356439469 L 454.2986686662805 430.49180038271766 L 460.9405460716931 419.8274780509423" stroke-miterlimit="10" stroke-dasharray=""/></g><g><path fill="none" stroke="#000000" paint-order="fill stroke markers" d=" M 715 601 L 563 409" stroke-miterlimit="10" stroke-dasharray=""/></g><g><path fill="#FFFFFF" stroke="none" paint-order="stroke fill markers" d=" M 572.6084570263591 414.3551427219645 L 563 409 L 566.0075473871552 419.580862853001 L 576.6554647760423 426.24900813815884"/></g><g><path fill="none" stroke="#000000" paint-order="fill stroke markers" d=" M 572.6084570263591 414.3551427219645 L 563 409 L 566.0075473871552 419.580862853001 L 576.6554647760423 426.24900813815884 L 572.6084570263591 414.3551427219645" stroke-miterlimit="10" stroke-dasharray=""/></g><g><path fill="none" stroke="#000000" paint-order="fill stroke markers" d=" M 319 601 L 91 251" stroke-miterlimit="10" stroke-dasharray=""/></g><g><path fill="#FFFFFF" stroke="none" paint-order="stroke fill markers" d=" M 100.07422731737284 257.2175878435809 L 91 251 L 93.01994914332346 261.81294619696166 L 103.00825006972514 269.4337172122973"/></g><g><path fill="none" stroke="#000000" paint-order="fill stroke markers" d=" M 100.07422731737284 257.2175878435809 L 91 251 L 93.01994914332346 261.81294619696166 L 103.00825006972514 269.4337172122973 L 100.07422731737284 257.2175878435809" stroke-miterlimit="10" stroke-dasharray=""/></g><g><path fill="none" stroke="#000000" paint-order="fill stroke markers" d=" M 579 263 L 993 86" stroke-miterlimit="10" stroke-dasharray=""/></g><g><path fill="#FFFFFF" stroke="none" paint-order="stroke fill markers" d=" M 977.6207072428724 101.73141297819643 L 993 86 L 971.0014090070533 86.24898659611074"/></g><g><path fill="none" stroke="#000000" paint-order="fill stroke markers" d=" M 977.6207072428724 101.73141297819643 L 993 86 L 971.0014090070533 86.24898659611074 L 977.6207072428724 101.73141297819643" stroke-miterlimit="10" stroke-dasharray=""/></g><g><path fill="none" stroke="#000000" paint-order="fill stroke markers" d=" M 141 215 L 993 69" stroke-miterlimit="10" stroke-dasharray=""/></g><g><path fill="#FFFFFF" stroke="none" paint-order="stroke fill markers" d=" M 974.3886309682218 80.73102479594047 L 993 69 L 971.5446875669872 64.13486193394147"/></g><g><path fill="none" stroke="#000000" paint-order="fill stroke markers" d=" M 974.3886309682218 80.73102479594047 L 993 69 L 971.5446875669872 64.13486193394147 L 974.3886309682218 80.73102479594047" stroke-miterlimit="10" stroke-dasharray=""/></g><g><path fill="none" stroke="#000000" paint-order="fill stroke markers" d=" M 505 665 L 1297 316" stroke-miterlimit="10" stroke-dasharray=""/></g><g><path fill="#FFFFFF" stroke="none" paint-order="stroke fill markers" d=" M 1289.3976572082363 323.9501184944954 L 1297 316 L 1286.0027491603448 316.2459145577334 L 1276.867944924744 324.871322249071"/></g><g><path fill="none" stroke="#000000" paint-order="fill stroke markers" d=" M 1289.3976572082363 323.9501184944954 L 1297 316 L 1286.0027491603448 316.2459145577334 L 1276.867944924744 324.871322249071 L 1289.3976572082363 323.9501184944954" stroke-miterlimit="10" stroke-dasharray=""/></g><g><path fill="none" stroke="#000000" paint-order="fill stroke markers" d=" M 823 624 L 1297 330" stroke-miterlimit="10" stroke-dasharray=""/></g><g><path fill="#FFFFFF" stroke="none" paint-order="stroke fill markers" d=" M 1290.582510634279 338.9339705753298 L 1297 330 L 1286.1448785745695 331.7794209280428 L 1278.3042608009712 341.59609140192924"/></g><g><path fill="none" stroke="#000000" paint-order="fill stroke markers" d=" M 1290.582510634279 338.9339705753298 L 1297 330 L 1286.1448785745695 331.7794209280428 L 1278.3042608009712 341.59609140192924 L 1290.582510634279 338.9339705753298" stroke-miterlimit="10" stroke-dasharray=""/></g><g><path fill="none" stroke="#000000" paint-order="fill stroke markers" d=" M 1065 638 L 579 361" stroke-miterlimit="10" stroke-dasharray=""/></g><g><path fill="#FFFFFF" stroke="none" paint-order="stroke fill markers" d=" M 589.9137096452558 362.3751151875572 L 579 361 L 585.744804824027 369.6895113720957 L 598.1134383303022 371.893873287024"/></g><g><path fill="none" stroke="#000000" paint-order="fill stroke markers" d=" M 589.9137096452558 362.3751151875572 L 579 361 L 585.744804824027 369.6895113720957 L 598.1134383303022 371.893873287024 L 589.9137096452558 362.3751151875572" stroke-miterlimit="10" stroke-dasharray=""/></g><g><path fill="none" stroke="#000000" paint-order="fill stroke markers" d=" M 1430 585 L 1382 333" stroke-miterlimit="10" stroke-dasharray=""/></g><g><path fill="#FFFFFF" stroke="none" paint-order="stroke fill markers" d=" M 1388.0367311521854 342.1955357101276 L 1382 333 L 1379.766387876636 343.7708391911847 L 1386.11646637358 354.61144846129446"/></g><g><path fill="none" stroke="#000000" paint-order="fill stroke markers" d=" M 1388.0367311521854 342.1955357101276 L 1382 333 L 1379.766387876636 343.7708391911847 L 1386.11646637358 354.61144846129446 L 1388.0367311521854 342.1955357101276" stroke-miterlimit="10" stroke-dasharray=""/></g></g></svg>